<svg width="30" height="30" viewBox="0 0 30 30" fill="none" xmlns="http://www.w3.org/2000/svg">
<path d="M26.1408 14.3115C27.6209 18.0374 27.2417 22.292 25.0912 25.6756L24.6683 26.341C24.2096 27.0628 23.4137 27.5 22.5584 27.5C17.3628 27.5 12.1673 27.5 6.9717 27.5C6.11644 27.5 5.32053 27.0628 4.86178 26.341L4.43892 25.6756C2.28842 22.292 1.90921 18.0374 3.38927 14.3114C4.71293 10.9792 7.94976 8.75001 11.5353 8.75001C13.6277 8.75 15.9396 8.75 17.9944 8.75C21.58 8.75 24.8172 10.9792 26.1408 14.3115Z" fill="#03B06B"/>
<path fill-rule="evenodd" clip-rule="evenodd" d="M9.46942 13.4859C9.96061 13.3221 10.4915 13.5876 10.6553 14.0788L12.2659 18.9106L13.8765 14.0788C14.0041 13.696 14.3623 13.4378 14.7659 13.4378C15.1694 13.4378 15.5277 13.696 15.6553 14.0788L17.2659 18.9106L18.8765 14.0788C19.0402 13.5876 19.5711 13.3221 20.0623 13.4859C20.5535 13.6496 20.819 14.1805 20.6553 14.6717L20.0249 16.5628L21.0156 16.5628C21.5334 16.5628 21.9531 16.9825 21.9531 17.5003C21.9531 18.018 21.5334 18.4378 21.0156 18.4378H19.3999L18.1553 22.1717C18.0277 22.5545 17.6694 22.8127 17.2659 22.8127C16.8623 22.8127 16.5041 22.5545 16.3765 22.1717L14.7659 17.3399L13.1553 22.1717C13.0277 22.5545 12.6694 22.8127 12.2659 22.8127C11.8623 22.8127 11.5041 22.5545 11.3765 22.1717L10.1318 18.4378H8.51562C7.99786 18.4378 7.57812 18.018 7.57812 17.5003C7.57812 16.9825 7.99786 16.5628 8.51562 16.5628H9.50683L8.87649 14.6717C8.71276 14.1805 8.97822 13.6496 9.46942 13.4859Z" fill="white"/>
<path d="M9.11207 2.5C8.22774 2.5 7.65035 3.3815 8.08158 4.15356C8.6146 5.10787 9.40882 6.34445 10.4642 7.5H19.0673C20.1227 6.34445 20.9169 5.10786 21.45 4.15356C21.8812 3.3815 21.3038 2.5 20.4195 2.5H9.11207Z" fill="#029258"/>
</svg>
