<svg width="24" height="24" viewBox="0 0 24 24" fill="none" xmlns="http://www.w3.org/2000/svg">
<path d="M20.9127 11.4492C22.0967 14.43 21.7933 17.8336 20.073 20.5405L19.7347 21.0728C19.3677 21.6502 18.7309 22 18.0467 22C13.8903 22 9.73382 22 5.57736 22C4.89315 22 4.25642 21.6502 3.88942 21.0728L3.55114 20.5405C1.83074 17.8336 1.52737 14.43 2.71141 11.4492C3.77034 8.78333 6.35981 7.00001 9.22826 7.00001C10.9021 7 12.7517 7 14.3955 7C17.264 7 19.8538 8.78333 20.9127 11.4492Z" fill="#3CC798"/>
<path fill-rule="evenodd" clip-rule="evenodd" d="M7.57553 10.7887C7.96849 10.6577 8.39323 10.8701 8.52421 11.263L9.8127 15.1285L11.1012 11.263C11.2033 10.9568 11.4899 10.7502 11.8127 10.7502C12.1355 10.7502 12.4221 10.9568 12.5242 11.263L13.8127 15.1285L15.1012 11.263C15.2322 10.8701 15.6569 10.6577 16.0499 10.7887C16.4428 10.9197 16.6552 11.3444 16.5242 11.7374L16.0199 13.2502L16.8125 13.2502C17.2267 13.2502 17.5625 13.586 17.5625 14.0002C17.5625 14.4144 17.2267 14.7502 16.8125 14.7502H15.5199L14.5242 17.7374C14.4221 18.0436 14.1355 18.2502 13.8127 18.2502C13.4899 18.2502 13.2033 18.0436 13.1012 17.7374L11.8127 13.8719L10.5242 17.7374C10.4221 18.0436 10.1355 18.2502 9.8127 18.2502C9.48988 18.2502 9.20328 18.0436 9.10119 17.7374L8.10547 14.7502H6.8125C6.39829 14.7502 6.0625 14.4144 6.0625 14.0002C6.0625 13.586 6.39829 13.2502 6.8125 13.2502H7.60547L7.10119 11.7374C6.9702 11.3444 7.18257 10.9197 7.57553 10.7887Z" fill="white"/>
<path d="M7.28985 2C6.58239 2 6.12048 2.7052 6.46546 3.32285C6.89188 4.08629 7.52725 5.07556 8.37158 6H15.254C16.0984 5.07556 16.7338 4.08629 17.1602 3.32285C17.5052 2.7052 17.0432 2 16.3358 2H7.28985Z" fill="#1E8F7F"/>
</svg>
