<svg width="30" height="30" viewBox="0 0 30 30" fill="none" xmlns="http://www.w3.org/2000/svg">
<path d="M3.75 8.14575C3.75 6.07468 5.42893 4.39575 7.5 4.39575H22.5C24.5711 4.39575 26.25 6.07468 26.25 8.14575V23.1458C26.25 25.2168 24.5711 26.8958 22.5 26.8958H7.5C5.42893 26.8958 3.75 25.2168 3.75 23.1458V8.14575Z" fill="#EBEDF2"/>
<path fill-rule="evenodd" clip-rule="evenodd" d="M26.25 12.6453V8.14575C26.25 6.07468 24.5711 4.39575 22.5 4.39575H7.5C5.42893 4.39575 3.75 6.07468 3.75 8.14575V12.6453H26.25Z" fill="#4487FF"/>
<path d="M9.14258 6.85425L9.14258 4.35425C9.14258 3.66389 9.70222 3.10425 10.3926 3.10425C11.0829 3.10425 11.6426 3.66389 11.6426 4.35425L11.6426 6.85425C11.6426 7.5446 11.0829 8.10425 10.3926 8.10425C9.70222 8.10425 9.14258 7.5446 9.14258 6.85425Z" fill="#1652B8"/>
<path d="M18.3574 6.85425L18.3574 4.35425C18.3574 3.66389 18.9171 3.10425 19.6074 3.10425C20.2978 3.10425 20.8574 3.66389 20.8574 4.35425L20.8574 6.85425C20.8574 7.5446 20.2978 8.10425 19.6074 8.10425C18.9171 8.10425 18.3574 7.5446 18.3574 6.85425Z" fill="#1652B8"/>
<path d="M17.666 15.9448L17.793 15.9509C18.4234 16.0148 18.916 16.5475 18.916 17.1948C18.916 17.8421 18.4234 18.3748 17.793 18.4387L17.666 18.4448H7.33398C6.64363 18.4448 6.08398 17.8852 6.08398 17.1948C6.08398 16.5045 6.64363 15.9448 7.33398 15.9448H17.666Z" fill="#D1D7E0"/>
<path d="M12.5 20.2031L12.627 20.2092C13.2575 20.273 13.75 20.8057 13.75 21.4531C13.75 22.1005 13.2575 22.6333 12.627 22.697L12.5 22.7031H7.33398C6.64363 22.7031 6.08398 22.1435 6.08398 21.4531C6.08398 20.7628 6.64363 20.2031 7.33398 20.2031H12.5Z" fill="#D1D7E0"/>
</svg>
