<svg width="24" height="24" viewBox="0 0 24 24" fill="none" xmlns="http://www.w3.org/2000/svg">
<path d="M19.9995 4.5C21.1041 4.5 22.0005 5.39543 22.0005 6.5V8.5C22.0005 9.05228 21.5353 9.48144 21.0267 9.69673C20.1298 10.0764 19.5005 10.9647 19.5005 12C19.5005 13.0754 20.1622 13.9221 21.0756 14.2956C21.569 14.4973 22.0005 14.9186 22.0005 15.4516V17.5C22.0005 18.6046 21.1041 19.5 19.9995 19.5H4.00049C2.89592 19.5 1.99951 18.6046 1.99951 17.5V15.5C1.99951 14.9477 2.46464 14.5185 2.97327 14.3033C3.87057 13.9237 4.50049 13.0353 4.50049 12C4.50049 10.9245 3.83809 10.0778 2.92443 9.70434C2.43102 9.50268 1.99951 9.08141 1.99951 8.54839V6.5C1.99951 5.39543 2.89592 4.5 4.00049 4.5H19.9995Z" fill="#F09656"/>
<path d="M10.4903 9.10747C10.4903 9.8917 9.86264 10.5274 9.08841 10.5274C8.31417 10.5274 7.68652 9.8917 7.68652 9.10747C7.68652 8.32324 8.31417 7.6875 9.08841 7.6875C9.86264 7.6875 10.4903 8.32324 10.4903 9.10747Z" fill="white"/>
<path d="M16.3121 14.8926C16.3121 15.6769 15.6844 16.3126 14.9102 16.3126C14.1359 16.3126 13.5083 15.6769 13.5083 14.8926C13.5083 14.1084 14.1359 13.4727 14.9102 13.4727C15.6844 13.4727 16.3121 14.1084 16.3121 14.8926Z" fill="white"/>
<path d="M14.2445 8.3771C14.6253 7.99624 15.2428 7.99625 15.6237 8.3771V8.3771C16.0045 8.75796 16.0045 9.37545 15.6237 9.7563L9.75602 15.624C9.37517 16.0048 8.75768 16.0048 8.37682 15.624V15.624C7.99596 15.2431 7.99596 14.6256 8.37682 14.2448L14.2445 8.3771Z" fill="white"/>
</svg>
