<svg width="24" height="24" viewBox="0 0 24 24" fill="none" xmlns="http://www.w3.org/2000/svg">
<path d="M20.2208 12.0622H1.36865L9.03568 4.59963C9.19648 4.4222 9.417 4.32215 9.64727 4.32215H19.3171C19.789 4.32215 20.1716 4.73399 20.1716 5.24202L20.2208 12.0622Z" fill="#4487FF"/>
<path d="M1.36865 12.0625H20.2208V19.0512C20.2208 19.5787 19.8382 20.0063 19.3663 20.0063H2.22311C1.75121 20.0063 1.36865 19.5787 1.36865 19.0512V12.0625Z" fill="#EBEDF2"/>
<rect x="3.30859" y="14.4941" width="3.96021" height="3.0817" rx="0.5" fill="#606875"/>
<path d="M13.376 12.0625H19.0169C19.6814 12.0625 20.2201 12.4907 20.2201 13.019V19.0492C20.2201 19.5774 19.6814 20.0056 19.0169 20.0056H13.376V12.0625Z" fill="#C1C8D6"/>
<path d="M15.0542 9.63623C15.0542 7.54386 16.7504 5.84766 18.8428 5.84766Lnan nanLnan nanL18.8428 5.84766C20.9351 5.84766 22.6313 7.54386 22.6313 9.63623V12.3295C22.6313 12.7646 22.4894 13.1879 22.2271 13.5351L20.8212 15.396C20.4432 15.8963 19.8525 16.1903 19.2254 16.1903H18.4601C17.8331 16.1903 17.2424 15.8963 16.8644 15.396L15.4584 13.5351C15.1961 13.1879 15.0542 12.7646 15.0542 12.3295V9.63623Z" fill="#E1E4EB"/>
</svg>
