<svg width="24" height="24" viewBox="0 0 24 24" fill="none" xmlns="http://www.w3.org/2000/svg">
<path d="M5.87451 5.45581C5.87451 4.36486 6.7589 3.48047 7.84985 3.48047H19.455C20.5459 3.48047 21.4303 4.36486 21.4303 5.45581V16.0733L15.5043 21.9993L7.84985 21.9993C6.7589 21.9993 5.87451 21.1149 5.87451 20.024V5.45581Z" fill="#EBEDF2"/>
<path d="M15.5044 17.0619C15.5044 16.5164 15.9466 16.0742 16.4921 16.0742H21.4304L15.5044 22.0002V17.0619Z" fill="#C1C8D6"/>
<path d="M13.32 7.37509C13.32 10.3437 10.9135 12.7502 7.94491 12.7502C4.97633 12.7502 2.56982 10.3437 2.56982 7.37509C2.56982 4.40651 4.97633 2 7.94491 2C10.9135 2 13.32 4.40651 13.32 7.37509Z" fill="#8A92A1"/>
<path d="M4.98438 7.37573C4.98438 6.96866 5.31569 6.63867 5.7244 6.63867H10.1645C10.5732 6.63867 10.9046 6.96866 10.9046 7.37573V7.37573C10.9046 7.78279 10.5732 8.11278 10.1645 8.11278H5.7244C5.31569 8.11278 4.98438 7.78279 4.98438 7.37573V7.37573Z" fill="white"/>
</svg>
