<svg width="24" height="24" viewBox="0 0 24 24" fill="none" xmlns="http://www.w3.org/2000/svg">
<path d="M18.6943 16.4785C18.6319 18.9365 16.6223 20.9107 14.1494 20.9111H11.582V19.2109H14.1494C15.6833 19.2106 16.9314 17.9974 16.9932 16.4785H18.6943Z" fill="#606875"/>
<path d="M12.0029 2.52148C15.6986 2.52162 18.6943 5.51719 18.6943 9.21289V13.9805H16.9951V9.21289C16.9951 6.45608 14.7597 4.22084 12.0029 4.2207C9.24604 4.2207 7.01074 6.456 7.01074 9.21289V13.9805H5.31152V9.21289C5.31152 5.51711 8.30715 2.52148 12.0029 2.52148Z" fill="#606875"/>
<path d="M2 11.791C2 10.4103 3.11929 9.29102 4.5 9.29102H6.16667C6.6269 9.29102 7 9.66411 7 10.1243V16.4577C7 16.9179 6.6269 17.291 6.16667 17.291H4.5C3.11929 17.291 2 16.1717 2 14.791V11.791Z" fill="#4487FF"/>
<path d="M10 19.9785C10 19.1501 10.6716 18.4785 11.5 18.4785H12.5C13.3284 18.4785 14 19.1501 14 19.9785V19.9785C14 20.8069 13.3284 21.4785 12.5 21.4785H11.5C10.6716 21.4785 10 20.8069 10 19.9785V19.9785Z" fill="#4487FF"/>
<path d="M22 11.791C22 10.4103 20.8807 9.29102 19.5 9.29102H17.8333C17.3731 9.29102 17 9.66411 17 10.1243V16.4577C17 16.9179 17.3731 17.291 17.8333 17.291H19.5C20.8807 17.291 22 16.1717 22 14.791V11.791Z" fill="#4487FF"/>
</svg>
