<svg width="20" height="20" viewBox="0 0 20 20" fill="none" xmlns="http://www.w3.org/2000/svg">
<path d="M10 1.66504C14.6033 1.66504 18.3349 5.39672 18.335 10C18.335 14.6033 14.6033 18.335 10 18.335C5.39672 18.3349 1.66504 14.6033 1.66504 10C1.66506 5.39674 5.39674 1.66506 10 1.66504ZM10 4.56152C9.58583 4.56154 9.25004 4.89736 9.25 5.31152V10C9.25001 10.2422 9.3674 10.4696 9.56445 10.6104L13.2109 13.2148C13.5479 13.4554 14.0161 13.3778 14.2568 13.041C14.4976 12.704 14.4191 12.2349 14.082 11.9941L10.75 9.61328L10.75 5.31152C10.75 4.89735 10.4142 4.56152 10 4.56152Z" fill="#4487FF"/>
</svg>
