<svg width="24" height="24" viewBox="0 0 24 24" fill="none" xmlns="http://www.w3.org/2000/svg">
<path d="M1.17037 9.33144C2.20638 8.49425 5.67372 7.93613 7.27832 7.76172L6.16905 11.9476C4.0726 11.4244 0.134352 10.1686 1.17037 9.33144Z" fill="#E09D5A"/>
<path d="M1.17037 9.33237C1.52268 9.04766 5.53419 9.68119 7.27832 10.2044L6.16905 11.9486C4.0726 11.4253 0.134352 10.1695 1.17037 9.33237Z" fill="#664829"/>
<path d="M22.3013 9.33144C21.2653 8.49425 17.798 7.93613 16.1934 7.76172L17.3026 11.9476C19.3991 11.4244 23.3373 10.1686 22.3013 9.33144Z" fill="#E09D5A"/>
<path d="M22.3013 9.33041C21.949 9.04571 17.9375 9.67924 16.1934 10.2025L17.3026 11.9466C19.3991 11.4234 23.3373 10.1676 22.3013 9.33041Z" fill="#664829"/>
<path d="M14.8975 2C14.4294 2 13.8075 3.62902 13.3394 5.43594C13.7027 5.61733 14.8681 6.15801 16.6128 6.88357C16.1775 3.59065 15.5228 2 14.8975 2Z" fill="#F5D3AD"/>
<path d="M6.85498 6.88357C8.59974 6.1615 9.7651 5.61733 10.1285 5.43594C9.66362 3.62902 9.03839 2 8.57028 2C7.94832 2 7.29035 3.59065 6.85498 6.88357Z" fill="#F5D3AD"/>
<path d="M19.8879 14.8394C19.4107 13.7511 18.9954 12.6364 18.6439 11.5008C18.4583 10.3528 18.2131 9.21542 17.9092 8.09324C17.5885 7.04254 16.9306 6.12824 16.0384 5.49323C14.7332 4.75764 13.2535 4.39333 11.7579 4.43944H11.6992C10.2037 4.39333 8.72389 4.75764 7.41874 5.49323C6.52752 6.12713 5.8725 7.04225 5.55768 8.09324C5.24592 9.2141 4.99737 10.3518 4.81325 11.5008C4.46172 12.6364 4.0464 13.7511 3.56928 14.8394C3.09444 15.9397 3.07089 17.1841 3.50379 18.3017C3.93669 19.4194 4.79101 20.32 5.8809 20.8076C7.71849 21.6661 9.73331 22.0712 11.7579 21.9894C13.7662 22.0634 15.7633 21.6584 17.586 20.8076C18.6759 20.32 19.5302 19.4194 19.9631 18.3017C20.396 17.1841 20.3725 15.9397 19.8976 14.8394H19.8879Z" fill="#E09D5A"/>
<path d="M9.05029 12.0014C9.05029 11.5972 9.37795 11.2695 9.78213 11.2695C10.1863 11.2695 10.514 11.5972 10.514 12.0014V12.4893C10.514 12.8935 10.1863 13.2211 9.78213 13.2211C9.37795 13.2211 9.05029 12.8935 9.05029 12.4893V12.0014Z" fill="#664829"/>
<path d="M12.9534 12.0014C12.9534 11.5972 13.2811 11.2695 13.6853 11.2695C14.0895 11.2695 14.4171 11.5972 14.4171 12.0014V12.4893C14.4171 12.8935 14.0895 13.2211 13.6853 13.2211C13.2811 13.2211 12.9534 12.8935 12.9534 12.4893V12.0014Z" fill="#664829"/>
<path d="M17.1911 13.547C15.9538 13.2119 14.6408 13.3744 13.3794 13.4441C13.321 13.4441 12.527 13.5038 11.7331 13.5038C10.9391 13.5038 10.1451 13.4474 10.0867 13.4441C8.82531 13.3711 7.51235 13.2119 6.27501 13.547C4.84519 13.9318 3.89656 15.2025 3.92749 16.6457C3.95499 17.8467 4.65615 19.1376 5.65977 19.7812C6.55685 20.3585 7.59484 20.7102 8.65002 20.9125C8.90092 20.959 9.94694 21.1481 11.7331 21.1481C13.5192 21.1481 14.5652 20.959 14.8161 20.9125C15.8713 20.7102 16.9058 20.3585 17.8064 19.7812C18.81 19.1343 19.5146 17.8467 19.5386 16.6457C19.5696 15.2025 18.6209 13.9351 17.1911 13.547Z" fill="#FFDDCC"/>
<path fill-rule="evenodd" clip-rule="evenodd" d="M8.40616 15.9709C8.60324 15.7871 8.91196 15.7979 9.09572 15.995C9.58259 16.5172 10.3493 16.8352 11.8322 16.8352C13.3152 16.8352 14.0819 16.5172 14.5687 15.995C14.7525 15.7979 15.0612 15.7871 15.2583 15.9709C15.4554 16.1546 15.4662 16.4634 15.2824 16.6605C14.532 17.4654 13.4426 17.8109 11.8322 17.8109C10.2218 17.8109 9.1325 17.4654 8.38203 16.6605C8.19827 16.4634 8.20907 16.1546 8.40616 15.9709Z" fill="#CB7A51"/>
</svg>
