<svg width="24" height="24" viewBox="0 0 24 24" fill="none" xmlns="http://www.w3.org/2000/svg">
<path d="M16 11.1387C16 9.48182 17.3431 8.13867 19 8.13867C20.6568 8.13867 22 9.48182 22 11.1387C22 12.7955 20.6568 14.1387 19 14.1387C17.3431 14.1387 16 12.7955 16 11.1387Z" fill="#D1D7E0"/>
<path d="M2 11.1406C2 8.3792 4.23854 6.14062 6.99996 6.14062C8.98547 6.14062 11.0262 6.14062 12 6.14062V16.1406H6.99999C4.23857 16.1406 2 13.902 2 11.1406Z" fill="#88B7FC"/>
<path d="M12 6.13962L17.5038 2.99456C18.1705 2.61362 19 3.09498 19 3.8628V18.4164C19 19.1842 18.1705 19.6656 17.5038 19.2847L12 16.1396V6.13962Z" fill="#4487FF"/>
<path d="M7 15.6406C7 14.8122 7.67157 14.1406 8.5 14.1406C9.32842 14.1406 9.99999 14.8122 9.99999 15.6406V19.6406C9.99999 20.469 9.32842 21.1406 8.5 21.1406C7.67157 21.1406 7 20.469 7 19.6406V15.6406Z" fill="#88B7FC"/>
</svg>
