<svg width="24" height="24" viewBox="0 0 24 24" fill="none" xmlns="http://www.w3.org/2000/svg">
<path d="M17.1431 20.8408H9.14258C1.99962 20.8408 2.00029 18.1165 2 11.2618C1.99943 7.3445 5.33363 4 9.14285 4C11.6357 4 13.8357 5.21311 15.1143 7.04971C15.8143 7.93752 16.3071 8.744 17.7143 8.744V8.75755C20.1143 8.93376 22 10.4729 22 13.6425C22 16.8122 22 20.8408 17.1431 20.8408Z" fill="#FEC9C3"/>
<path d="M17.9844 15.6357C21.533 15.2501 21.5483 10.4133 16.7227 10.0335C14.7888 9.88123 14.3993 8.71429 13.7114 8.01197C13.0594 7.34736 11.95 7.52432 11.9279 9.92859C11.9058 12.3329 14.4358 16.0212 17.9844 15.6357Z" fill="#F76868"/>
<path d="M10.9181 8.56167C11.0625 6.70067 11.1539 5.52254 8.82923 5.58027C5.7742 5.65613 3.61375 8.10614 3.61375 10.7457C3.7285 13.5306 5.06897 15.9694 11.8495 15.8011C13.0289 15.7718 13.0693 15.3353 12.5569 14.5813C12.0182 13.7887 10.8923 12.6282 10.8395 10.5007C10.8221 9.79841 10.8727 9.14635 10.9181 8.56168L10.9181 8.56167L10.9181 8.56167Z" fill="#F76868"/>
</svg>
