<svg width="24" height="24" viewBox="0 0 24 24" fill="none" xmlns="http://www.w3.org/2000/svg">
<path d="M12.7933 9.17404C12.4294 9.7649 11.5705 9.7649 11.2065 9.17404L7.6627 3.42029C7.28032 2.79946 7.72696 1.99981 8.4561 1.99981L15.5438 1.99981C16.2729 1.99981 16.7195 2.79946 16.3372 3.42029L12.7933 9.17404Z" fill="#D6CABB"/>
<path d="M21.3179 16.502C21.3179 19.5379 17.146 21.999 11.9998 21.999C6.85351 21.999 2.68164 19.5379 2.68164 16.502C2.68164 13.4662 6.85351 7.16602 11.9998 7.16602C17.146 7.16602 21.3179 13.4662 21.3179 16.502Z" fill="#D6CABB"/>
<path d="M7.52002 6.78669C7.52002 5.88515 8.25087 5.1543 9.15241 5.1543H14.847C15.7486 5.1543 16.4794 5.88515 16.4794 6.78669V6.78669C16.4794 7.68824 15.7486 8.41909 14.847 8.41909H9.15241C8.25087 8.41909 7.52002 7.68824 7.52002 6.78669V6.78669Z" fill="#7E6256"/>
<path d="M14.4014 12.3779C14.5267 11.9602 14.9671 11.7233 15.3848 11.8486C15.8023 11.9739 16.0392 12.4135 15.9141 12.8311L15.4297 14.4463H15.6846C16.1205 14.4465 16.4736 14.8004 16.4736 15.2363C16.4735 15.6722 16.1204 16.0252 15.6846 16.0254H14.9561L14.335 18.0957C14.2347 18.4294 13.9276 18.658 13.5791 18.6582C13.2305 18.6582 12.9225 18.4296 12.8223 18.0957L11.999 15.3525L11.1768 18.0957C11.0765 18.4296 10.7686 18.6582 10.4199 18.6582C10.0715 18.658 9.7643 18.4294 9.66406 18.0957L9.04297 16.0254H8.31445C7.87856 16.0252 7.52549 15.6722 7.52539 15.2363C7.52539 14.8003 7.8785 14.4465 8.31445 14.4463H8.56934L8.08496 12.8311C7.95984 12.4135 8.19669 11.9739 8.61426 11.8486C9.03195 11.7233 9.47235 11.9602 9.59766 12.3779L10.4199 15.1211L11.2432 12.3779C11.3433 12.0441 11.6505 11.8147 11.999 11.8145C12.3477 11.8145 12.6557 12.0439 12.7559 12.3779L13.5791 15.1211L14.4014 12.3779Z" fill="#B7AB9B"/>
</svg>
