<svg width="20" height="20" viewBox="0 0 20 20" fill="none" xmlns="http://www.w3.org/2000/svg">
<path d="M13.125 5.625C13.125 7.35089 11.7259 8.75 10 8.75C8.27411 8.75 6.875 7.35089 6.875 5.625C6.875 3.89911 8.27411 2.5 10 2.5C11.7259 2.5 13.125 3.89911 13.125 5.625Z" fill="#F8CCA9"/>
<path fill-rule="evenodd" clip-rule="evenodd" d="M8.51088 9.39307L10 11.8749L11.4891 9.39307C14.8505 9.64314 17.5 12.4496 17.5 15.8749C17.5 16.7724 16.7725 17.4999 15.875 17.4999H4.125C3.22754 17.4999 2.5 16.7724 2.5 15.8749C2.5 12.4496 5.14949 9.64314 8.51088 9.39307Z" fill="#B0CFFD"/>
<path fill-rule="evenodd" clip-rule="evenodd" d="M8.5 9.375L10 11.875L11.5 9.375H11.5633C12.474 9.375 14.5833 10 15 10.7342V17.5H5V10.7342C5 10.4167 7.16091 9.375 8.46882 9.375H8.5Z" fill="#4487FF"/>
</svg>
