<svg width="24" height="24" viewBox="0 0 24 24" fill="none" xmlns="http://www.w3.org/2000/svg">
<path d="M20.9127 11.4492C22.0967 14.43 21.7933 17.8336 20.073 20.5405L19.7347 21.0728C19.3677 21.6502 18.7309 22 18.0467 22C13.8903 22 9.73382 22 5.57736 22C4.89315 22 4.25642 21.6502 3.88942 21.0728L3.55114 20.5405C1.83074 17.8336 1.52737 14.43 2.71141 11.4492C3.77034 8.78333 6.35981 7.00001 9.22826 7.00001C10.9021 7 12.7517 7 14.3955 7C17.264 7 19.8538 8.78333 20.9127 11.4492Z" fill="#4487FF"/>
<path d="M12.6271 9.90039C13.0778 9.90039 13.4981 10.0304 13.8881 10.2904C14.2868 10.5504 14.6074 10.9014 14.8501 11.3434C15.0928 11.7854 15.2141 12.2794 15.2141 12.8254C15.2141 13.3627 15.0928 13.8524 14.8501 14.2944C14.6074 14.7364 14.2868 15.0917 13.8881 15.3604C13.4981 15.6204 13.0778 15.7504 12.6271 15.7504H10.2351L10.3651 15.5164V18.2074C10.3651 18.4327 10.2958 18.6234 10.1571 18.7794C10.0185 18.9267 9.83645 19.0004 9.61112 19.0004C9.39445 19.0004 9.21678 18.9267 9.07812 18.7794C8.93945 18.6234 8.87012 18.4327 8.87012 18.2074V10.6934C8.87012 10.4681 8.94378 10.2817 9.09112 10.1344C9.24712 9.97839 9.43778 9.90039 9.66312 9.90039H12.6271ZM12.6271 14.2684C12.7918 14.2684 12.9521 14.1991 13.1081 14.0604C13.2641 13.9217 13.3941 13.7441 13.4981 13.5274C13.6021 13.3021 13.6541 13.0681 13.6541 12.8254C13.6541 12.5741 13.6021 12.3401 13.4981 12.1234C13.3941 11.9067 13.2641 11.7334 13.1081 11.6034C12.9521 11.4647 12.7918 11.3954 12.6271 11.3954H10.2091L10.3651 11.1614V14.4764L10.2221 14.2684H12.6271Z" fill="white"/>
<path d="M7.28887 2C6.58141 2 6.1195 2.7052 6.46449 3.32285C6.8909 4.08629 7.52628 5.07556 8.3706 6H15.2531C16.0974 5.07556 16.7328 4.08629 17.1592 3.32285C17.5042 2.7052 17.0423 2 16.3348 2H7.28887Z" fill="#1767E8"/>
</svg>
