<svg width="24" height="24" viewBox="0 0 24 24" fill="none" xmlns="http://www.w3.org/2000/svg">
<path d="M2 7.56298C2 5.1346 3.96859 3.16602 6.39697 3.16602H17.603C20.0314 3.16602 22 5.13461 22 7.56299V13.3848C22 15.8132 20.0314 17.7818 17.603 17.7818H6.39697C3.96859 17.7818 2 15.8132 2 13.3848V7.56298Z" fill="#EBEDF2"/>
<path d="M12.6337 20.4676C12.3517 20.9561 11.6465 20.9561 11.3644 20.4676L9.81456 17.7831L14.1836 17.7831L12.6337 20.4676Z" fill="#EBEDF2"/>
<path d="M13.5993 10.4735C13.5993 11.3433 12.8941 12.0485 12.0243 12.0485C11.1544 12.0485 10.4492 11.3433 10.4492 10.4735C10.4492 9.6036 11.1544 8.89844 12.0243 8.89844C12.8941 8.89844 13.5993 9.6036 13.5993 10.4735Z" fill="#D1D7E0"/>
<path d="M8.91764 10.4735C8.91764 11.3433 8.21248 12.0485 7.34261 12.0485C6.47274 12.0485 5.76758 11.3433 5.76758 10.4735C5.76758 9.6036 6.47274 8.89844 7.34261 8.89844C8.21248 8.89844 8.91764 9.6036 8.91764 10.4735Z" fill="#D1D7E0"/>
<path d="M18.2819 10.4735C18.2819 11.3433 17.5767 12.0485 16.7069 12.0485C15.837 12.0485 15.1318 11.3433 15.1318 10.4735C15.1318 9.6036 15.837 8.89844 16.7069 8.89844C17.5767 8.89844 18.2819 9.6036 18.2819 10.4735Z" fill="#D1D7E0"/>
</svg>
