<svg width="24" height="24" viewBox="0 0 24 24" fill="none" xmlns="http://www.w3.org/2000/svg">
<path fill-rule="evenodd" clip-rule="evenodd" d="M13.8687 1.6596C13.4802 1.5 12.9867 1.5 12.0007 1.5C11.0148 1.5 10.5223 1.5 10.1328 1.6596C9.87645 1.76433 9.64338 1.91872 9.44696 2.11388C9.25054 2.30904 9.09465 2.54111 8.98827 2.79675C8.88957 3.0309 8.85177 3.30495 8.83602 3.7029C8.82853 3.99113 8.74789 4.27272 8.60169 4.52122C8.45549 4.76973 8.24852 4.97699 8.00022 5.12355C7.7469 5.26436 7.46214 5.33895 7.17232 5.34042C6.88251 5.34189 6.597 5.27018 6.34227 5.13195C5.98737 4.94505 5.73012 4.84215 5.47602 4.80855C4.92013 4.73602 4.35805 4.88541 3.91152 5.22435C3.57762 5.47845 3.33087 5.90265 2.83842 6.75C2.34492 7.59735 2.09922 8.0205 2.04357 8.43525C1.97007 8.98755 2.12127 9.54615 2.46357 9.9882C2.61897 10.1898 2.83842 10.3588 3.17757 10.5709C3.67842 10.8828 3.99972 11.4141 3.99972 12C3.99972 12.5859 3.67842 13.1172 3.17862 13.428C2.83842 13.6411 2.61897 13.8102 2.46252 14.0118C2.29407 14.2304 2.17036 14.4801 2.09847 14.7466C2.02659 15.013 2.00793 15.2911 2.04357 15.5647C2.09922 15.9784 2.34492 16.4026 2.83842 17.25C3.33192 18.0973 3.57762 18.5205 3.91152 18.7756C4.35672 19.1148 4.91952 19.2639 5.47602 19.1915C5.73012 19.1579 5.98737 19.0549 6.34227 18.868C6.59713 18.7296 6.88283 18.6578 7.17285 18.6593C7.46287 18.6608 7.74782 18.7355 8.00127 18.8764C8.51157 19.1704 8.81397 19.7112 8.83602 20.2971C8.85177 20.6961 8.88957 20.9691 8.98827 21.2032C9.20247 21.7177 9.61407 22.1272 10.1328 22.3404C10.5213 22.5 11.0148 22.5 12.0007 22.5C12.9867 22.5 13.4802 22.5 13.8687 22.3404C14.125 22.2357 14.3581 22.0813 14.5545 21.8861C14.7509 21.691 14.9068 21.4589 15.0132 21.2032C15.1119 20.9691 15.1497 20.6961 15.1654 20.2971C15.1864 19.7112 15.4899 19.1694 16.0012 18.8764C16.2545 18.7356 16.5393 18.661 16.8291 18.6596C17.1189 18.6581 17.4044 18.7298 17.6592 18.868C18.0141 19.0549 18.2713 19.1579 18.5254 19.1915C19.0819 19.265 19.6447 19.1148 20.0899 18.7756C20.4238 18.5215 20.6706 18.0973 21.163 17.25C21.6565 16.4026 21.9022 15.9795 21.9579 15.5647C21.9934 15.291 21.9745 15.0129 21.9025 14.7465C21.8304 14.48 21.7065 14.2303 21.5379 14.0118C21.3825 13.8102 21.163 13.6411 20.8239 13.429C20.323 13.1172 20.0017 12.5859 20.0017 12C20.0017 11.4141 20.323 10.8828 20.8228 10.572C21.163 10.3588 21.3825 10.1898 21.5389 9.9882C21.7074 9.76958 21.8311 9.51989 21.903 9.25343C21.9749 8.98696 21.9935 8.70893 21.9579 8.43525C21.9022 8.02155 21.6565 7.59735 21.163 6.75C20.6695 5.90265 20.4238 5.4795 20.0899 5.22435C19.6434 4.88541 19.0813 4.73602 18.5254 4.80855C18.2713 4.84215 18.0141 4.94505 17.6592 5.13195C17.4043 5.27037 17.1186 5.34218 16.8286 5.34071C16.5386 5.33924 16.2536 5.26454 16.0002 5.12355C15.7521 4.97687 15.5453 4.76954 15.3993 4.52105C15.2533 4.27255 15.1728 3.99103 15.1654 3.7029C15.1497 3.3039 15.1119 3.0309 15.0132 2.79675C14.9068 2.54111 14.7509 2.30904 14.5545 2.11388C14.3581 1.91872 14.125 1.76433 13.8687 1.6596ZM12.0007 15.15C13.7542 15.15 15.1749 13.7398 15.1749 12C15.1749 10.2601 13.7532 8.85 12.0007 8.85C10.2483 8.85 8.82657 10.2601 8.82657 12C8.82657 13.7398 10.2483 15.15 12.0007 15.15Z" fill="#A3ADC2"/>
</svg>
