<svg width="24" height="24" viewBox="0 0 24 24" fill="none" xmlns="http://www.w3.org/2000/svg">
<path d="M3.73877 6.13132C3.73877 5.86988 3.88963 5.63191 4.12608 5.52037L11.2167 2.17547C11.7127 1.94151 12.2872 1.94151 12.7832 2.17547L19.8738 5.52037C20.1103 5.63191 20.2611 5.86988 20.2611 6.13132V12.5371C20.2611 17.3134 16.7326 21.3553 12 22C7.26736 21.3553 3.73877 17.3134 3.73877 12.5371V6.13132Z" fill="#4487FF"/>
<path fill-rule="evenodd" clip-rule="evenodd" d="M13.0745 8.66205C13.0745 8.1551 12.6635 7.74414 12.1566 7.74414H11.8431C11.3362 7.74414 10.9252 8.1551 10.9252 8.66205V10.6098H8.97748C8.47053 10.6098 8.05957 11.0208 8.05957 11.5277V11.8412C8.05957 12.3481 8.47053 12.7591 8.97748 12.7591H10.9252V14.7068C10.9252 15.2138 11.3362 15.6247 11.8432 15.6247H12.1566C12.6635 15.6247 13.0745 15.2138 13.0745 14.7068V12.7591H15.0223C15.5292 12.7591 15.9402 12.3481 15.9402 11.8412V11.5277C15.9402 11.0208 15.5292 10.6098 15.0223 10.6098H13.0745V8.66205Z" fill="white"/>
</svg>
