<svg width="20" height="20" viewBox="0 0 20 20" fill="none" xmlns="http://www.w3.org/2000/svg">
<path d="M18.3327 10.0001C18.3327 14.6025 14.6017 18.3334 9.99935 18.3334C5.39698 18.3334 1.66602 14.6025 1.66602 10.0001C1.66602 5.39771 5.39698 1.66675 9.99935 1.66675C14.6017 1.66675 18.3327 5.39771 18.3327 10.0001Z" fill="#4487FF"/>
<path fill-rule="evenodd" clip-rule="evenodd" d="M10 4.53125C10.4315 4.53125 10.7812 4.88103 10.7812 5.3125V9.59795L14.0999 11.9684C14.451 12.2192 14.5324 12.7072 14.2816 13.0583C14.0308 13.4094 13.5428 13.4907 13.1917 13.2399L9.54591 10.6357C9.3406 10.4891 9.21875 10.2523 9.21875 10V5.3125C9.21875 4.88103 9.56853 4.53125 10 4.53125Z" fill="white"/>
</svg>
