<svg width="120" height="24" viewBox="0 0 120 24" fill="none" xmlns="http://www.w3.org/2000/svg">
<g clip-path="url(#clip0_3125_7081)">
<path d="M20.9456 3.21225C20.8973 3.03161 20.8274 2.86049 20.7372 2.70204C20.7339 2.69569 20.731 2.68935 20.7278 2.68459C19.8126 0.901978 17.3273 1.02876 13.7495 2.21716C13.194 1.3932 12.3053 0.727686 11.2191 0.337891C11.619 0.825922 11.8571 1.42488 11.8571 2.07456C11.8571 2.38513 11.8027 2.68301 11.7031 2.96349C10.3538 3.49112 8.88936 4.12336 7.32534 4.82848C6.08344 4.39908 5.20262 3.32952 5.20262 2.07456C5.20262 1.68001 5.29132 1.30287 5.45006 0.959026C4.28133 1.73547 3.539 2.89217 3.539 4.18516C3.539 5.22145 4.0152 6.17059 4.80733 6.90582L0.54788 18.8057C0.336225 19.2509 0.214844 19.747 0.214844 20.2745C0.214844 22.1443 1.70417 23.6608 3.54056 23.6608C3.63548 23.6608 3.74131 23.6545 3.8549 23.6449C3.86892 23.6449 3.88292 23.6416 3.89693 23.6416C5.28667 23.5024 7.96807 22.6593 9.51965 22.1634C11.6377 21.4852 15.1097 20.2206 15.9967 19.4792C17.027 18.7043 17.6947 17.4605 17.6947 16.0581C17.6947 14.1678 16.4823 12.5674 14.8062 12.0144C20.3606 8.92136 21.6802 5.4734 20.9456 3.21384V3.21225Z" fill="#0A64F0"/>
<path d="M32.9091 8.35018C31.0665 8.35018 29.9491 9.12662 29.392 9.67011V3.67578L26.8242 4.16698V20.2422H29.392V19.1915C29.9491 19.7352 31.0665 20.5116 32.9091 20.5116C36.1306 20.5116 38.5599 17.897 38.5599 14.4317C38.5599 10.9663 36.1306 8.35176 32.9091 8.35176V8.35018ZM32.9214 18.1268C30.9607 18.1268 29.5368 16.5724 29.5368 14.4301C29.5368 12.2878 30.9607 10.7333 32.9214 10.7333C34.8825 10.7333 36.2131 12.2529 36.2131 14.4301C36.2131 16.6072 34.8591 18.1268 32.9214 18.1268Z" fill="#373B47"/>
<path d="M49.2831 9.66857C48.726 9.12508 47.6086 8.34863 45.766 8.34863C42.5445 8.34863 40.1152 10.9631 40.1152 14.4285C40.1152 17.8939 42.5445 20.5084 45.766 20.5084C47.6086 20.5084 48.726 19.732 49.2831 19.1886V20.239H51.8509V8.55306L49.2831 9.04426V9.67015V9.66857ZM49.3204 14.4285C49.3204 16.5708 47.8965 18.1253 45.9355 18.1253C43.9747 18.1253 42.6441 16.6057 42.6441 14.4285C42.6441 12.2514 43.9981 10.7318 45.9355 10.7318C47.8732 10.7318 49.3204 12.2862 49.3204 14.4285Z" fill="#373B47"/>
<path d="M59.7044 8.34863C57.9848 8.34863 56.9048 9.13298 56.3569 9.68599V8.55306L53.7891 9.04426V20.2423H56.3569V14.2384C56.3569 12.2957 57.6719 10.7144 59.2889 10.7144C60.428 10.7144 61.7866 11.2563 61.7866 13.8343V20.2407H64.3544V13.4889C64.3544 10.4149 62.4855 8.35022 59.7028 8.35022L59.7044 8.34863Z" fill="#373B47"/>
<path d="M77.1638 8.49914L73.5519 9.00777L68.978 14.007V3.67578L66.4102 4.16698V20.2422H68.978V17.3044L70.7692 15.3855L74.319 20.2422H77.4082L72.4329 13.5887L77.1638 8.49914Z" fill="#373B47"/>
<path d="M85.7945 16.0967C85.3854 17.3485 84.299 18.1265 82.9592 18.1265C81.0215 18.1265 79.6678 16.6069 79.6678 14.4297C79.6678 12.2526 81.0215 10.733 82.9592 10.733C84.2772 10.733 85.3479 11.4967 85.7572 12.7248L85.8289 12.9403H88.4279L88.3376 12.5489C87.7572 10.0358 85.5955 8.34668 82.9592 8.34668C79.5867 8.34668 77.1387 10.9041 77.1387 14.4266C77.1387 17.949 79.6023 20.5064 82.9965 20.5064C85.6312 20.5064 87.7416 18.8443 88.3733 16.271L88.4714 15.8764H85.8646L85.7932 16.0935L85.7945 16.0967Z" fill="#373B47"/>
<path d="M95.6848 8.34863C92.3015 8.34863 89.8457 10.9061 89.8457 14.4285C89.8457 17.951 92.3015 20.5084 95.6848 20.5084C99.068 20.5084 101.505 17.951 101.505 14.4285C101.505 10.9061 99.0571 8.34863 95.6848 8.34863ZM98.9762 14.4285C98.9762 16.5708 97.5926 18.1253 95.6848 18.1253C93.7767 18.1253 92.3746 16.5708 92.3746 14.4285C92.3746 12.2862 93.7659 10.7318 95.6848 10.7318C97.6036 10.7318 98.9762 12.2862 98.9762 14.4285Z" fill="#373B47"/>
<path d="M117.216 9.0328L114.729 16.5261L112.11 8.57646L109.576 9.0328L107.125 16.4691L104.504 8.5717L101.994 9.07242L105.868 20.2419H108.274L110.882 12.4903L113.506 20.2419H115.912L119.975 8.52734L117.216 9.0328Z" fill="#373B47"/>
</g>
<defs>
<clipPath id="clip0_3125_7081">
<rect width="120" height="24" fill="white"/>
</clipPath>
</defs>
</svg>
