<svg width="24" height="24" viewBox="0 0 24 24" fill="none" xmlns="http://www.w3.org/2000/svg">
<path fill-rule="evenodd" clip-rule="evenodd" d="M11.9986 0.969727C14.6518 0.969972 16.8031 3.12112 16.8033 5.77441V6.71973H18.2994C19.3089 6.71981 20.1597 7.47181 20.2837 8.47363L21.5142 18.4326C21.772 20.5199 20.1438 22.3613 18.0406 22.3613H5.95952C3.85632 22.3613 2.22808 20.5199 2.48588 18.4326L3.71635 8.47363C3.84036 7.47182 4.69125 6.71985 5.70073 6.71973H7.19389V5.77441C7.19404 3.12098 9.34511 0.969744 11.9986 0.969727ZM11.9986 3.27734C10.6196 3.27736 9.50165 4.39548 9.50151 5.77441V6.71973H14.4956V5.77441C14.4955 4.39562 13.3773 3.27759 11.9986 3.27734Z" fill="#C1C8D6"/>
</svg>
