<svg width="24" height="24" viewBox="0 0 24 24" fill="none" xmlns="http://www.w3.org/2000/svg">
<path d="M19.6477 4.66667C19.5435 4.64553 19.4498 4.58928 19.3825 4.50743C19.3152 4.42558 19.2785 4.32316 19.2785 4.2175V2.83333C19.2785 2.3471 19.084 1.88079 18.7378 1.53697C18.3916 1.19315 17.922 1 17.4324 1H5.89417C5.15974 1 4.45539 1.28973 3.93607 1.80546C3.41675 2.32118 3.125 3.02065 3.125 3.75V20.25C3.125 20.9793 3.41675 21.6788 3.93607 22.1945C4.45539 22.7103 5.15974 23 5.89417 23H19.2785C19.7681 23 20.2377 22.8068 20.5839 22.463C20.9301 22.1192 21.1246 21.6529 21.1246 21.1667V6.5C21.1333 6.0711 20.9903 5.65274 20.7205 5.31776C20.4506 4.98278 20.071 4.75238 19.6477 4.66667ZM4.97112 3.75C4.97112 3.50688 5.06837 3.27373 5.24147 3.10182C5.41458 2.92991 5.64936 2.83333 5.89417 2.83333H17.2016C17.2628 2.83333 17.3215 2.85748 17.3648 2.90045C17.4081 2.94343 17.4324 3.00172 17.4324 3.0625V4.4375C17.4324 4.49828 17.4081 4.55657 17.3648 4.59955C17.3215 4.64252 17.2628 4.66667 17.2016 4.66667H5.89417C5.64936 4.66667 5.41458 4.57009 5.24147 4.39818C5.06837 4.22627 4.97112 3.99312 4.97112 3.75ZM17.4416 13.1733L15.1617 15.19C15.1271 15.222 15.1032 15.2638 15.0933 15.3097C15.0834 15.3556 15.0879 15.4034 15.1063 15.4467L16.3709 18.3342C16.4397 18.4742 16.4606 18.6327 16.4303 18.7856C16.4001 18.9385 16.3204 19.0773 16.2034 19.1811C16.0863 19.2849 15.9384 19.3479 15.782 19.3604C15.6256 19.373 15.4694 19.3345 15.3371 19.2508L12.2356 17.5C12.2016 17.4815 12.1635 17.4719 12.1248 17.4719C12.0861 17.4719 12.048 17.4815 12.014 17.5L8.91257 19.2325C8.78024 19.3162 8.62401 19.3547 8.46763 19.3421C8.31125 19.3295 8.16329 19.2666 8.04626 19.1628C7.92923 19.059 7.84953 18.9201 7.8193 18.7672C7.78906 18.6144 7.80993 18.4559 7.87875 18.3158L9.14334 15.4283C9.16169 15.3851 9.16622 15.3372 9.15631 15.2913C9.14641 15.2454 9.12255 15.2037 9.08795 15.1717L6.808 13.155C6.71367 13.0602 6.64957 12.9398 6.6237 12.809C6.59784 12.6782 6.61135 12.5428 6.66256 12.4195C6.71376 12.2963 6.80039 12.1908 6.91163 12.1162C7.02286 12.0416 7.15377 12.0012 7.28799 12H9.90024C9.94528 12.0002 9.98938 11.9872 10.0271 11.9628C10.0648 11.9384 10.0945 11.9035 10.1125 11.8625L11.4694 8.7275C11.5318 8.60832 11.6258 8.50842 11.7414 8.43869C11.857 8.36897 11.9896 8.33209 12.1248 8.33209C12.26 8.33209 12.3927 8.36897 12.5082 8.43869C12.6238 8.50842 12.7179 8.60832 12.7802 8.7275L14.1371 11.8625C14.1551 11.9035 14.1848 11.9384 14.2225 11.9628C14.2602 11.9872 14.3043 12.0002 14.3494 12H16.9616C17.0997 11.9974 17.2354 12.0364 17.3507 12.1119C17.466 12.1874 17.5556 12.2958 17.6076 12.4229C17.6595 12.55 17.6715 12.6897 17.6419 12.8237C17.6123 12.9577 17.5424 13.0796 17.4416 13.1733Z" fill="#C1C8D6"/>
</svg>
