<svg width="28" height="28" viewBox="0 0 28 28" fill="none" xmlns="http://www.w3.org/2000/svg">
<path d="M3.5 7.60303C3.5 5.67003 5.067 4.10303 7 4.10303H21C22.933 4.10303 24.5 5.67003 24.5 7.60303V21.603C24.5 23.536 22.933 25.103 21 25.103H7C5.067 25.103 3.5 23.536 3.5 21.603V7.60303Z" fill="#EBEDF2"/>
<path fill-rule="evenodd" clip-rule="evenodd" d="M24.5 11.8026V7.60303C24.5 5.67003 22.933 4.10303 21 4.10303H7C5.067 4.10303 3.5 5.67003 3.5 7.60303V11.8026H24.5Z" fill="#4487FF"/>
<path d="M8.53394 6.39746L8.53394 4.06413C8.53394 3.4198 9.05627 2.89746 9.7006 2.89746C10.3449 2.89746 10.8673 3.4198 10.8673 4.06413L10.8673 6.39746C10.8673 7.04179 10.3449 7.56413 9.7006 7.56413C9.05627 7.56413 8.53394 7.04179 8.53394 6.39746Z" fill="#1652B8"/>
<path d="M17.1328 6.39746L17.1328 4.06413C17.1328 3.4198 17.6551 2.89746 18.2995 2.89746C18.9438 2.89746 19.4661 3.4198 19.4661 4.06413L19.4661 6.39746C19.4661 7.04179 18.9438 7.56413 18.2995 7.56413C17.6551 7.56413 17.1328 7.04179 17.1328 6.39746Z" fill="#1652B8"/>
<path d="M16.4881 14.8818L16.6066 14.8875C17.195 14.9472 17.6548 15.4444 17.6548 16.0485C17.6548 16.6527 17.195 17.1498 16.6066 17.2095L16.4881 17.2152H6.84489C6.20056 17.2152 5.67822 16.6928 5.67822 16.0485C5.67822 15.4042 6.20056 14.8818 6.84489 14.8818H16.4881Z" fill="#D1D7E0"/>
<path d="M11.6665 18.8564L11.785 18.8621C12.3736 18.9216 12.8332 19.4189 12.8332 20.0231C12.8332 20.6274 12.3736 21.1246 11.785 21.1841L11.6665 21.1898H6.84489C6.20056 21.1898 5.67822 20.6674 5.67822 20.0231C5.67822 19.3788 6.20056 18.8564 6.84489 18.8564H11.6665Z" fill="#D1D7E0"/>
</svg>
