<svg width="28" height="28" viewBox="0 0 28 28" fill="none" xmlns="http://www.w3.org/2000/svg">
<path d="M23.5909 14.0739H1.59668L10.5415 5.36754C10.7291 5.16054 10.9864 5.04381 11.2551 5.04381H22.5365C23.0871 5.04381 23.5334 5.52429 23.5334 6.11699L23.5909 14.0739Z" fill="#4487FF"/>
<path d="M1.59668 14.0742H23.5909V22.2277C23.5909 22.8431 23.1445 23.342 22.594 23.342H2.59355C2.04299 23.342 1.59668 22.8431 1.59668 22.2277V14.0742Z" fill="#EBEDF2"/>
<rect x="3.85986" y="16.9102" width="4.62024" height="3.59532" rx="0.5" fill="#606875"/>
<path d="M15.6055 14.0742H22.1866C22.9618 14.0742 23.5903 14.5738 23.5903 15.1901V22.2253C23.5903 22.8416 22.9618 23.3412 22.1865 23.3412H15.6055V14.0742Z" fill="#C1C8D6"/>
<path d="M17.563 11.2423C17.563 8.80117 19.5419 6.82227 21.983 6.82227Lnan nanLnan nanL21.983 6.82227C24.4241 6.82227 26.403 8.80117 26.403 11.2423V14.4961C26.403 14.9313 26.2611 15.3546 25.9988 15.7018L24.1911 18.0943C23.8131 18.5946 23.2224 18.8887 22.5953 18.8887H21.3706C20.7436 18.8887 20.1529 18.5946 19.7749 18.0943L17.9672 15.7018C17.7049 15.3546 17.563 14.9313 17.563 14.4961V11.2423Z" fill="#E1E4EB"/>
</svg>
