<svg width="28" height="28" viewBox="0 0 28 28" fill="none" xmlns="http://www.w3.org/2000/svg">
<path d="M6.85327 6.36609C6.85327 5.09331 7.88506 4.06152 9.15783 4.06152H22.6971C23.9699 4.06152 25.0017 5.09331 25.0017 6.36609V18.7531L18.088 25.6668L9.15784 25.6669C7.88506 25.6669 6.85327 24.6351 6.85327 23.3623V6.36609Z" fill="#EBEDF2"/>
<path d="M18.0881 19.9057C18.0881 19.2693 18.604 18.7534 19.2404 18.7534H25.0018L18.0881 25.6671V19.9057Z" fill="#C1C8D6"/>
<path d="M15.5399 8.60443C15.5399 12.0678 12.7323 14.8754 9.26898 14.8754C5.80564 14.8754 2.99805 12.0678 2.99805 8.60443C2.99805 5.14109 5.80564 2.3335 9.26898 2.3335C12.7323 2.3335 15.5399 5.14109 15.5399 8.60443Z" fill="#8A92A1"/>
<path d="M5.81519 8.60404C5.81519 8.12913 6.20172 7.74414 6.67854 7.74414H11.8587C12.3355 7.74414 12.7221 8.12913 12.7221 8.60404V8.60404C12.7221 9.07895 12.3355 9.46394 11.8587 9.46394H6.67854C6.20172 9.46394 5.81519 9.07895 5.81519 8.60404V8.60404Z" fill="white"/>
</svg>
