<svg width="20" height="20" viewBox="0 0 20 20" fill="none" xmlns="http://www.w3.org/2000/svg">
<path d="M18.3334 10.0001C18.3334 14.6025 14.6025 18.3334 10.0001 18.3334C5.39771 18.3334 1.66675 14.6025 1.66675 10.0001C1.66675 5.39771 5.39771 1.66675 10.0001 1.66675C14.6025 1.66675 18.3334 5.39771 18.3334 10.0001Z" fill="#EBEDF2"/>
<path d="M9.91518 4.88743C10.0347 4.87641 10.2409 4.88594 10.3617 4.89795C11.1261 4.97775 11.8271 5.35937 12.3091 5.95808C12.8435 6.60229 13.0958 7.43466 13.0089 8.26716C12.9302 9.04855 12.4284 9.95051 11.748 10.3637C11.5011 10.5136 11.1173 10.6955 10.9423 10.9249C10.6726 11.2786 10.7619 11.9496 10.248 12.1251C9.4242 12.374 9.16924 11.6568 9.28595 10.9909C9.40113 10.3337 9.6814 9.91603 10.207 9.52995C10.5516 9.31314 10.894 9.20841 11.158 8.87871C11.8972 7.95139 11.3994 6.61522 10.2209 6.42061C9.5547 6.27079 8.70749 6.77443 8.55604 7.45623C8.4209 8.06465 8.41127 8.74007 7.53892 8.62832C7.22415 8.59292 6.99482 8.35605 6.97879 8.03552C6.88871 6.23373 8.1834 4.99329 9.91518 4.88743Z" fill="#D1D7E0"/>
<path d="M9.92603 13.0051C10.5089 12.9642 11.0145 13.4038 11.055 13.9867C11.0955 14.5697 10.6556 15.075 10.0726 15.1151C9.49019 15.1552 8.98543 14.7157 8.94497 14.1333C8.90452 13.5509 9.34365 13.0459 9.92603 13.0051Z" fill="#D1D7E0"/>
</svg>
