<svg width="28" height="28" viewBox="0 0 28 28" fill="none" xmlns="http://www.w3.org/2000/svg">
<path d="M14.926 10.7027C14.5014 11.3921 13.4993 11.3921 13.0747 10.7027L8.94022 3.99001C8.49411 3.26571 9.01519 2.33279 9.86585 2.33279L18.1348 2.33279C18.9855 2.33279 19.5065 3.26571 19.0604 3.99001L14.926 10.7027Z" fill="#D6CABB"/>
<path d="M24.8712 19.2529C24.8712 22.7947 20.004 25.6659 14.0001 25.6659C7.99609 25.6659 3.12891 22.7947 3.12891 19.2529C3.12891 15.711 7.99609 8.36084 14.0001 8.36084C20.004 8.36084 24.8712 15.711 24.8712 19.2529Z" fill="#D6CABB"/>
<path d="M8.77368 7.91764C8.77368 6.86584 9.62634 6.01318 10.6781 6.01318H17.3218C18.3737 6.01318 19.2263 6.86584 19.2263 7.91764V7.91764C19.2263 8.96945 18.3737 9.82211 17.3218 9.82211H10.6781C9.62634 9.82211 8.77368 8.96945 8.77368 7.91764V7.91764Z" fill="#7E6256"/>
<path d="M16.8022 14.4406C16.9484 13.9533 17.4622 13.6769 17.9495 13.8231C18.4367 13.9693 18.713 14.4821 18.5671 14.9692L18.002 16.8537H18.2993C18.8079 16.8539 19.2199 17.2668 19.2199 17.7754C19.2198 18.2839 18.8078 18.6957 18.2993 18.696H17.4494L16.7248 21.1113C16.6078 21.5007 16.2495 21.7674 15.8429 21.7676C15.4362 21.7676 15.0769 21.5009 14.96 21.1113L13.9995 17.911L13.0402 21.1113C12.9232 21.5009 12.564 21.7676 12.1572 21.7676C11.7507 21.7674 11.3923 21.5007 11.2754 21.1113L10.5508 18.696H9.70085C9.19231 18.6958 8.78039 18.2839 8.78027 17.7754C8.78027 17.2667 9.19224 16.8539 9.70085 16.8537H9.99821L9.43311 14.9692C9.28714 14.482 9.56345 13.9693 10.0506 13.8231C10.5379 13.6769 11.0517 13.9533 11.1979 14.4406L12.1572 17.641L13.1177 14.4406C13.2345 14.0511 13.5929 13.7834 13.9995 13.7832C14.4063 13.7832 14.7656 14.0509 14.8825 14.4406L15.8429 17.641L16.8022 14.4406Z" fill="#B7AB9B"/>
</svg>
