<svg width="28" height="28" viewBox="0 0 28 28" fill="none" xmlns="http://www.w3.org/2000/svg">
<path d="M4.36182 7.15337C4.36182 6.84835 4.53782 6.57073 4.81368 6.44059L13.0861 2.53821C13.6647 2.26526 14.335 2.26526 14.9137 2.53821L23.1861 6.44059C23.4619 6.57073 23.6379 6.84835 23.6379 7.15337V14.6268C23.6379 20.1991 19.5212 24.9147 13.9999 25.6668C8.47851 24.9147 4.36182 20.1991 4.36182 14.6268V7.15337Z" fill="#4487FF"/>
<path fill-rule="evenodd" clip-rule="evenodd" d="M15.2536 10.1061C15.2536 9.51461 14.7741 9.03516 14.1827 9.03516H13.817C13.2256 9.03516 12.7461 9.51461 12.7461 10.1061V12.3784H10.4737C9.88229 12.3784 9.40283 12.8579 9.40283 13.4493V13.815C9.40283 14.4064 9.88229 14.8859 10.4737 14.8859H12.7461V17.1583C12.7461 17.7497 13.2256 18.2292 13.817 18.2292H14.1827C14.7741 18.2292 15.2536 17.7497 15.2536 17.1583V14.8859H17.526C18.1174 14.8859 18.5969 14.4064 18.5969 13.815V13.4493C18.5969 12.8579 18.1174 12.3784 17.526 12.3784H15.2536V10.1061Z" fill="white"/>
</svg>
