<svg width="28" height="28" viewBox="0 0 28 28" fill="none" xmlns="http://www.w3.org/2000/svg">
<path d="M4.36182 7.15288C4.36182 6.84786 4.53782 6.57024 4.81368 6.4401L13.0861 2.53772C13.6647 2.26477 14.335 2.26477 14.9137 2.53772L23.1861 6.4401C23.4619 6.57024 23.6379 6.84787 23.6379 7.15288V14.6263C23.6379 20.1986 19.5212 24.9142 13.9999 25.6663C8.47851 24.9142 4.36182 20.1986 4.36182 14.6263V7.15288Z" fill="#4487FF"/>
<path fill-rule="evenodd" clip-rule="evenodd" d="M15.2536 10.1061C15.2536 9.51461 14.7741 9.03516 14.1827 9.03516H13.817C13.2256 9.03516 12.7461 9.51461 12.7461 10.1061V12.3784H10.4737C9.88229 12.3784 9.40283 12.8579 9.40283 13.4493V13.815C9.40283 14.4064 9.88229 14.8859 10.4737 14.8859H12.7461V17.1583C12.7461 17.7497 13.2256 18.2292 13.817 18.2292H14.1827C14.7741 18.2292 15.2536 17.7497 15.2536 17.1583V14.8859H17.526C18.1174 14.8859 18.5969 14.4064 18.5969 13.815V13.4493C18.5969 12.8579 18.1174 12.3784 17.526 12.3784H15.2536V10.1061Z" fill="white"/>
</svg>
