<svg width="28" height="28" viewBox="0 0 28 28" fill="none" xmlns="http://www.w3.org/2000/svg">
<g clip-path="url(#clip0_3125_8623)">
<path d="M18.6003 2.33301L13.9982 4.64336L9.40234 2.33301L13.9982 11.0807L18.6003 2.33301Z" fill="white"/>
<path d="M20.2091 9.09345L20.1407 9.03134L23.4231 7.65258V3.03809L17.7186 5.46955C17.7186 5.46955 14.6288 11.3231 14.5574 11.4566C16.9764 11.7454 18.793 13.7732 18.793 16.217C18.793 18.8659 16.6442 21.021 13.9953 21.021C11.3465 21.021 9.19762 18.8659 9.19762 16.217C9.19762 13.7732 11.0142 11.7454 13.4333 11.4566C13.3618 11.3231 10.2783 5.46955 10.2783 5.46955L4.58312 3.03809V7.65258L7.86234 9.03134L7.79091 9.09345C5.7352 10.8914 4.55518 13.4875 4.55518 16.217C4.55518 21.4278 8.79082 25.6665 13.9984 25.6665C19.206 25.6665 23.4417 21.4278 23.4417 16.217C23.4417 13.4937 22.2648 10.8976 20.2091 9.09345Z" fill="white"/>
</g>
<defs>
<clipPath id="clip0_3125_8623">
<rect width="18.8896" height="23.3333" fill="white" transform="translate(4.55518 2.33301)"/>
</clipPath>
</defs>
</svg>
