<svg width="28" height="28" viewBox="0 0 28 28" fill="none" xmlns="http://www.w3.org/2000/svg">
<path d="M14.0002 2.3335C7.5577 2.3335 2.3335 7.5577 2.3335 14.0002C2.3335 20.4426 7.5577 25.6668 14.0002 25.6668C20.4426 25.6668 25.6668 20.4426 25.6668 14.0002C25.6668 7.5577 20.4426 2.3335 14.0002 2.3335ZM14.2444 23.5294C12.8478 23.727 10.5759 23.3703 9.03662 22.399C7.68941 21.5456 6.88547 20.481 6.36415 19.4C5.83185 18.2942 5.57942 16.9552 6.14739 17.0211C6.41354 17.0513 6.64127 17.5561 7.15436 18.2119C7.50557 18.6591 7.8266 19.0378 8.0708 19.0872C8.18055 19.1091 8.26835 19.0597 8.34792 18.9143C8.49334 18.6372 8.68815 18.1104 9.03936 17.6824C9.32197 17.3558 9.6622 17.2022 9.8625 18.0006C9.95854 18.3985 10.0354 18.8073 10.0793 19.164C10.1424 19.6689 10.1753 19.9707 10.3482 20.0557C10.5155 20.1381 10.8009 20.0311 11.2591 19.8609C11.5884 19.7375 12.0109 19.5811 12.5487 19.4274C13.0426 19.2847 13.3554 19.3616 13.0371 20.1271C12.8862 20.4893 12.7353 20.7938 12.203 21.5621C12.1097 21.6965 12.1261 21.831 12.2441 21.9462C12.4225 22.1218 12.8286 22.3386 13.2731 22.5334C13.6297 22.6871 14.055 22.8215 14.3349 22.9011C14.7739 23.0273 14.6889 23.469 14.2471 23.5321L14.2444 23.5294ZM20.2313 21.0216C19.7978 21.7295 18.8869 22.4922 17.7811 22.9998C17.6138 23.0739 17.4354 23.052 17.3915 22.9148C17.3531 22.7968 17.4464 22.6596 17.5561 22.5307C18.9939 20.6649 17.9266 18.9527 15.6025 17.6247C13.8877 16.6424 12.7956 16.08 11.5307 15.3337C7.82111 13.1496 7.10498 11.2481 6.95955 10.1204C6.59463 7.27784 8.94607 5.1459 11.3634 4.63281C11.4374 4.61909 11.6295 4.58616 11.6926 4.74805C11.7557 4.90993 11.6131 5.02517 11.528 5.0773C10.4469 5.67271 9.38508 6.93486 9.50032 8.33969C9.56617 9.12442 9.90092 10.2521 12.0246 11.764C13.306 12.6776 14.8754 13.4267 18.039 15.3227C21.381 17.3257 20.9996 19.7704 20.2368 21.0161L20.2313 21.0216ZM20.7527 10.3509C19.9899 11.2865 19.2271 10.9381 18.6399 9.62105C18.275 8.80065 17.7921 8.60309 17.4519 8.81711C17.0815 9.05034 17.2269 9.61282 17.6439 10.2604C17.9156 10.6829 17.7948 11.1823 17.5122 11.4759C17.2159 11.7859 16.7303 11.9094 16.2007 11.7914C15.2596 11.5829 14.3349 10.3235 15.0099 7.57417C15.2815 6.46293 14.7492 5.98825 14.4117 5.56296C14.2416 5.34894 14.2224 5.21998 14.2828 5.13492C14.3486 5.04163 14.505 5.0334 14.7821 5.09377C15.1443 5.17059 15.6821 5.35443 16.1184 5.42302C16.4092 5.46692 16.7357 5.48064 17.0842 5.46692C18.0226 5.43125 18.714 5.57668 19.4219 5.92788C20.6237 6.52329 20.7444 7.54399 20.0777 7.46442C19.8472 7.43698 19.5481 7.26137 19.3039 7.14065C19.1393 7.06108 18.9966 7.03638 18.8924 7.11046C18.7936 7.1818 18.7524 7.32997 18.821 7.47813C18.9692 7.79093 19.4741 7.95281 20.1573 8.14214C21.3536 8.47139 21.3783 9.58263 20.7527 10.3482V10.3509Z" fill="white"/>
</svg>
